<svg width="30" height="30" viewBox="0 0 30 30" fill="none" xmlns="http://www.w3.org/2000/svg">
<path d="M27.8503 18.0872L25.0378 15.2747C24.862 15.0989 24.6236 15.0002 24.375 15.0002C24.1264 15.0002 23.888 15.0989 23.7122 15.2747L15 23.9869V28.125H19.1381L27.8503 19.4128C28.0261 19.237 28.1248 18.9986 28.1248 18.75C28.1248 18.5014 28.0261 18.263 27.8503 18.0872ZM18.3619 26.25H16.875V24.7631L21.5625 20.0756L23.0494 21.5625L18.3619 26.25ZM24.375 20.2369L22.8881 18.75L24.375 17.2631L25.8619 18.75L24.375 20.2369Z" fill="#877676"/>
<path d="M7.5 15H16.875V16.875H7.5V15Z" fill="#877676"/>
<path d="M7.5 9.375H18.75V11.25H7.5V9.375Z" fill="#877676"/>
<path d="M24.375 3.75C24.3745 3.25287 24.1768 2.77625 23.8253 2.42472C23.4738 2.0732 22.9971 1.8755 22.5 1.875H3.75001C3.25288 1.8755 2.77625 2.0732 2.42473 2.42472C2.07321 2.77625 1.8755 3.25287 1.87501 3.75V15.9375C1.87292 17.8072 2.38006 19.6422 3.34199 21.2454C4.30392 22.8487 5.68431 24.1597 7.33501 25.0378L12.1875 27.6253V25.5L8.21813 23.3831C6.86752 22.6647 5.73803 21.5921 4.95086 20.2803C4.16369 18.9686 3.74855 17.4673 3.75001 15.9375V3.75H22.5V12.1875H24.375V3.75Z" fill="#877676"/>
</svg>
