<svg width="48" height="48" viewBox="0 0 48 48" fill="none" xmlns="http://www.w3.org/2000/svg">
<path fill-rule="evenodd" clip-rule="evenodd" d="M28.5 14C28.5 13.1716 29.1716 12.5 30 12.5H42C42.8284 12.5 43.5 13.1716 43.5 14V26C43.5 26.8284 42.8284 27.5 42 27.5C41.1716 27.5 40.5 26.8284 40.5 26V17.6213L29.8891 28.2323C27.7413 30.38 24.2587 30.38 22.1109 28.2323L19.7678 25.8891C19.7678 25.8891 19.7677 25.8891 19.7677 25.8891C18.7914 24.9128 17.2085 24.9128 16.2322 25.8891C16.2322 25.8891 16.2322 25.8891 16.2322 25.8891L7.06066 35.0607C6.47488 35.6464 5.52513 35.6464 4.93934 35.0607C4.35355 34.4749 4.35355 33.5251 4.93934 32.9393L14.1109 23.7677L14.1109 23.7677C16.2588 21.62 19.7412 21.62 21.889 23.7677L21.8891 23.7677L24.2323 26.1109C25.2085 27.0872 26.7915 27.0872 27.7677 26.1109L38.3787 15.5H30C29.1716 15.5 28.5 14.8284 28.5 14Z" fill="#877676"/>
</svg>
