<svg width="30" height="30" viewBox="0 0 30 30" fill="none" xmlns="http://www.w3.org/2000/svg">
<path d="M19.6875 24.375H3.75C3.25272 24.375 2.77581 24.1775 2.42417 23.8258C2.07254 23.4742 1.875 22.9973 1.875 22.5V7.5C1.875 7.00272 2.07254 6.52581 2.42417 6.17417C2.77581 5.82254 3.25272 5.625 3.75 5.625H19.6875C20.1848 5.625 20.6617 5.82254 21.0133 6.17417C21.365 6.52581 21.5625 7.00272 21.5625 7.5V11.3063L26.6437 7.67812C26.7837 7.5785 26.9483 7.51923 27.1196 7.50678C27.2909 7.49434 27.4623 7.5292 27.6152 7.60756C27.7681 7.68592 27.8964 7.80477 27.9863 7.95113C28.0762 8.09749 28.1242 8.26574 28.125 8.4375V21.5625C28.1242 21.7343 28.0762 21.9025 27.9863 22.0489C27.8964 22.1952 27.7681 22.3141 27.6152 22.3924C27.4623 22.4708 27.2909 22.5057 27.1196 22.4932C26.9483 22.4808 26.7837 22.4215 26.6437 22.3219L21.5625 18.6938V22.5C21.5625 22.9973 21.365 23.4742 21.0133 23.8258C20.6617 24.1775 20.1848 24.375 19.6875 24.375ZM3.75 7.5V22.5H19.6875V16.875C19.6883 16.7032 19.7363 16.535 19.8262 16.3886C19.9161 16.2423 20.0444 16.1234 20.1973 16.0451C20.3502 15.9667 20.5216 15.9318 20.6929 15.9443C20.8642 15.9567 21.0288 16.016 21.1688 16.1156L26.25 19.7437V10.2562L21.1688 13.8844C21.0288 13.984 20.8642 14.0433 20.6929 14.0557C20.5216 14.0682 20.3502 14.0333 20.1973 13.9549C20.0444 13.8766 19.9161 13.7577 19.8262 13.6114C19.7363 13.465 19.6883 13.2968 19.6875 13.125V7.5H3.75Z" fill="#877676"/>
</svg>
